<?xml version="1.0" encoding="utf-8"?>
<!-- Generator: Adobe Illustrator 16.0.0, SVG Export Plug-In . SVG Version: 6.00 Build 0)  -->
<!DOCTYPE svg PUBLIC "-//W3C//DTD SVG 1.1//EN" "http://www.w3.org/Graphics/SVG/1.1/DTD/svg11.dtd">
<svg version="1.1" id="Слой_1" xmlns:svgjs="http://svgjs.com/svgjs"
	 xmlns="http://www.w3.org/2000/svg" xmlns:xlink="http://www.w3.org/1999/xlink" x="0px" y="0px" width="512px" height="512px"
	 viewBox="0 0 512 512" enable-background="new 0 0 512 512" xml:space="preserve">
<g>
	<g>
		<path fill="#757575" d="M507.472,175.195c-3.63-4.286-8.96-6.757-14.577-6.757h-53.03L335.717,26.582
			c-6.247-8.514-18.2-10.329-26.702-4.095c-8.508,6.247-10.336,18.207-4.095,26.708l87.546,119.244H114.439l87.546-119.244
			c6.247-8.508,4.407-20.461-4.095-26.708c-8.502-6.241-20.461-4.407-26.708,4.095L67.034,168.439h-47.93
			c-5.617,0-10.947,2.471-14.577,6.757c-3.63,4.286-5.19,9.947-4.267,15.487L48.021,477.25c1.535,9.208,9.508,15.965,18.843,15.965
			h378.269c9.342,0,17.31-6.75,18.843-15.965l47.762-286.567C512.662,185.149,511.102,179.481,507.472,175.195z M428.953,455.006
			H83.047L41.654,206.648h428.692L428.953,455.006z"/>
	</g>
</g>
</svg>
