<?xml version="1.0" encoding="utf-8"?>
<!-- Generator: Adobe Illustrator 16.0.0, SVG Export Plug-In . SVG Version: 6.00 Build 0)  -->
<!DOCTYPE svg PUBLIC "-//W3C//DTD SVG 1.1//EN" "http://www.w3.org/Graphics/SVG/1.1/DTD/svg11.dtd">
<svg version="1.1" id="Слой_1" xmlns:svgjs="http://svgjs.com/svgjs"
	 xmlns="http://www.w3.org/2000/svg" xmlns:xlink="http://www.w3.org/1999/xlink" x="0px" y="0px" width="512px" height="512px"
	 viewBox="0 0 512 512" enable-background="new 0 0 512 512" xml:space="preserve">
<g>
	<g>
		<path fill="#FFFFFF" d="M213.43,256.005c0,4.446,1.711,8.382,5.129,11.8l239.063,239.066c3.421,3.419,7.355,5.128,11.8,5.128
			c4.445,0,8.381-1.705,11.8-5.128l25.649-25.644c3.425-3.42,5.13-7.355,5.13-11.806c0-4.44-1.705-8.376-5.13-11.795
			L305.251,256.005L506.87,54.387c3.425-3.419,5.13-7.348,5.13-11.8s-1.705-8.381-5.13-11.8L481.223,5.134
			C477.803,1.716,473.868,0,469.423,0c-4.444,0-8.381,1.716-11.802,5.134L218.546,244.198
			C215.128,247.625,213.43,251.56,213.43,256.005z"/>
	</g>
</g>
<g>
	<g>
		<path fill="#FFFFFF" d="M0,255.005c0,4.446,1.711,8.382,5.129,11.8l239.063,239.066c3.421,3.419,7.355,5.128,11.8,5.128
			c4.445,0,8.381-1.705,11.8-5.128l25.649-25.644c3.425-3.42,5.13-7.355,5.13-11.806c0-4.44-1.705-8.376-5.13-11.795L91.821,255.005
			L293.44,53.387c3.425-3.419,5.13-7.348,5.13-11.8s-1.705-8.381-5.13-11.8L267.793,4.134C264.373,0.716,260.438-1,255.993-1
			c-4.444,0-8.381,1.716-11.802,5.134L5.116,243.198C1.698,246.625,0,250.56,0,255.005z"/>
	</g>
</g>
</svg>
