<?xml version="1.0" encoding="utf-8"?>
<!-- Generator: Adobe Illustrator 16.0.0, SVG Export Plug-In . SVG Version: 6.00 Build 0)  -->
<!DOCTYPE svg PUBLIC "-//W3C//DTD SVG 1.1//EN" "http://www.w3.org/Graphics/SVG/1.1/DTD/svg11.dtd">
<svg version="1.1" id="Capa_1" xmlns="http://www.w3.org/2000/svg" xmlns:xlink="http://www.w3.org/1999/xlink" x="0px" y="0px"
	 width="512px" height="512px" viewBox="0 0 512 512" enable-background="new 0 0 512 512" xml:space="preserve">
<g>
	<path fill="#757575" d="M370.385,0H141.168C63.328,0,0,63.331,0,141.171v229.226c0,77.843,63.328,141.165,141.162,141.165h229.217
		c77.854,0,141.177-63.331,141.177-141.165V141.171C511.564,63.331,448.233,0,370.385,0z M466.176,370.391
		c0,52.809-42.971,95.776-95.779,95.776H141.168c-52.812,0.009-95.78-42.962-95.78-95.776v-229.22
		c0-52.812,42.968-95.783,95.78-95.783h229.217c52.817,0,95.788,42.971,95.788,95.777L466.176,370.391L466.176,370.391z"/>
	<path fill="#757575" d="M255.782,123.97c-72.687,0-131.818,59.132-131.818,131.818c0,72.681,59.132,131.81,131.818,131.81
		c72.684,0,131.815-59.129,131.815-131.81C387.598,183.102,328.466,123.97,255.782,123.97z M255.782,342.206
		c-47.652,0-86.43-38.766-86.43-86.421c0-47.658,38.772-86.43,86.43-86.43c47.658,0,86.427,38.772,86.427,86.43
		C342.209,303.44,303.434,342.206,255.782,342.206z"/>
	<path fill="#757575" d="M393.126,85.484c-8.752,0-17.337,3.54-23.516,9.743c-6.205,6.173-9.769,14.766-9.769,23.542
		c0,8.747,3.569,17.334,9.769,23.542c6.173,6.164,14.767,9.742,23.516,9.742c8.768,0,17.334-3.578,23.543-9.742
		c6.202-6.211,9.742-14.805,9.742-23.542c0-8.776-3.54-17.369-9.742-23.542C410.495,89.024,401.899,85.484,393.126,85.484z"/>
</g>
</svg>
