<?xml version="1.0" encoding="utf-8"?>
<!-- Generator: Adobe Illustrator 16.0.0, SVG Export Plug-In . SVG Version: 6.00 Build 0)  -->
<!DOCTYPE svg PUBLIC "-//W3C//DTD SVG 1.1//EN" "http://www.w3.org/Graphics/SVG/1.1/DTD/svg11.dtd">
<svg version="1.1" id="Слой_1" xmlns:svgjs="http://svgjs.com/svgjs"
	 xmlns="http://www.w3.org/2000/svg" xmlns:xlink="http://www.w3.org/1999/xlink" x="0px" y="0px" width="512px" height="512px"
	 viewBox="0 0 512 512" enable-background="new 0 0 512 512" xml:space="preserve">
<g>
	<g>
		<path fill="#FFFFFF" d="M293.454,244.198L54.379,5.134C50.958,1.716,47.021,0,42.577,0c-4.445,0-8.38,1.716-11.8,5.134
			L5.13,30.786C1.705,34.206,0,38.134,0,42.586s1.705,8.381,5.13,11.8l201.619,201.619L5.13,457.628
			C1.705,461.047,0,464.982,0,469.423c0,4.45,1.705,8.386,5.13,11.806l25.649,25.644c3.419,3.423,7.355,5.128,11.8,5.128
			c4.444,0,8.379-1.709,11.8-5.128l239.062-239.066c3.418-3.418,5.129-7.354,5.129-11.8
			C298.57,251.56,296.872,247.625,293.454,244.198z"/>
	</g>
</g>
<g>
	<g>
		<path fill="#FFFFFF" d="M506.884,243.198L267.809,4.134C264.388,0.716,260.451-1,256.007-1c-4.445,0-8.38,1.716-11.8,5.134
			L218.56,29.786c-3.425,3.419-5.13,7.348-5.13,11.8s1.705,8.381,5.13,11.8l201.619,201.619L218.56,456.628
			c-3.425,3.419-5.13,7.354-5.13,11.795c0,4.45,1.705,8.386,5.13,11.806l25.649,25.644c3.419,3.423,7.355,5.128,11.8,5.128
			c4.444,0,8.379-1.709,11.8-5.128l239.063-239.066c3.418-3.418,5.129-7.354,5.129-11.8C512,250.56,510.302,246.625,506.884,243.198
			z"/>
	</g>
</g>
</svg>
