<?xml version="1.0" encoding="utf-8"?>
<!-- Generator: Adobe Illustrator 16.0.0, SVG Export Plug-In . SVG Version: 6.00 Build 0)  -->
<!DOCTYPE svg PUBLIC "-//W3C//DTD SVG 1.1//EN" "http://www.w3.org/Graphics/SVG/1.1/DTD/svg11.dtd">
<svg version="1.1" id="Слой_1" xmlns="http://www.w3.org/2000/svg" xmlns:xlink="http://www.w3.org/1999/xlink" x="0px" y="0px"
	 width="250px" height="59.421px" viewBox="176.861 370.456 250 59.421" enable-background="new 176.861 370.456 250 59.421"
	 xml:space="preserve">
<g id="Слой_x0020_1">
	<path fill="#5C202A" d="M225.96,418.597c-3.243-10.503,12.154-33.88,13.903-40.779c1.031-2.522,0.155-7.362-1.752-7.362
		c-0.05,0-0.103,0-0.152,0c-4.224,0.617-22.862,30.792-24.253,30.224c-0.514-0.205,9.887-20.234,8.856-24.972
		c-0.308-1.441-1.594-5.252-3.861-5.252c-8.393,0-23.48,5.509-28.73,16.836c-0.258,0.465-0.361,1.03-0.361,1.596
		c-0.103,2.882,1.853,6.746,2.883,6.746c0.155,0,0.36-0.103,0.413-0.36c1.336-6.18,9.68-18.382,22.913-21.266
		c-12.925,14.056-21.523,38.308-37.124,38.308c-0.31,0-0.618-0.05-0.928-0.05c-0.565-0.052-1.029,0.515-0.875,1.028
		c0.67,2.267,3.708,5.921,7.672,5.974c16.581,0.208,28.165-37.434,33.572-42.429c0.566,3.554-8.65,21.01-8.703,23.893
		c0,1.957,0.773,4.582,1.958,4.737c4.943,0.463,17.607-24.406,24.919-30.071c-2.317,8.909-17.401,28.062-17.299,38.104
		c0,4.015,3.14,5.766,5.25,5.766c0.773,0,1.391-0.257,1.699-0.668V418.597z M257.678,399.083c0.361-0.618,0.155-0.875-0.205-0.875
		c-0.258,0-0.618,0.155-0.876,0.465c-5.147,6.847-10.245,14.057-16.065,14.057c-2.213,0-3.088-1.392-3.088-3.451
		c0-1.131,0.257-2.522,0.823-3.964c0.928,0.463,1.907,0.668,2.883,0.668c5.202,0,10.452-6.075,10.452-11.326
		c0-3.656-1.904-5.2-5.097-5.2c-7.157,0-14.261,11.379-14.261,19.052c0,3.809,1.802,6.744,6.281,6.744
		C245.271,415.251,252.22,408.249,257.678,399.083z M248.154,392.081c3.451,0.156-1.699,10.093-6.281,10.093
		c-0.67,0-1.391-0.206-2.009-0.773C241.15,397.333,246.505,392.029,248.154,392.081z M277.503,394.141
		c0.36-0.618-0.308-2.007-2.935-2.007c-0.103,0-0.256,0-0.411,0c-0.875,0.051-2.059,0.411-3.038,2.007
		c-0.361-1.494-3.398-4.324-6.023-4.274c-8.549,0.155-13.853,11.637-14.109,19.001c-0.155,3.912,1.597,6.332,4.479,6.332
		c2.47,0,5.303-2.42,8.804-7.208c-7.312,14.314-12.202,17.815-15.24,17.815c-2.162,0-3.348-1.852-3.758-2.728h-0.053
		c-0.257,0-0.462,0.514-0.462,1.339c0,2.007,1.338,5.354,6.023,5.457C262.52,430.132,272.457,397.589,277.503,394.141
		L277.503,394.141z M270.193,395.582c0,0.053-2.833,6.024-3.708,7.723c-3.039,4.532-6.747,9.321-9.167,9.321
		c-0.874,0-1.441-0.721-1.441-1.854c0.052-6.281,6.128-17.404,10.453-17.662C268.234,393.11,269.317,393.986,270.193,395.582
		L270.193,395.582z M306.853,397.849c-0.207,0-0.412,0.256-0.617,0.668c-3.656,6.281-9.372,13.798-12.41,13.851
		c-0.566,0-0.721-0.155-0.721-0.979c0-3.243,4.582-12.459,8.496-16.528c0-1.751-1.699-2.317-3.192-2.317h-0.309
		c-1.236,0.053-2.008,1.184-2.369,1.597c-0.876-1.441-2.678-4.274-6.333-4.274c-7.826,0-14.572,12.357-14.572,19.722
		c0,3.398,1.339,5.921,4.482,5.921c4.479,0,8.906-6.797,9.729-7.723c-0.308,0.979-0.463,2.007-0.463,2.985
		c0,2.625,1.082,4.79,2.883,4.79c5.407,0,13.44-11.173,16.015-16.013c0.153-0.258,0.153-0.928,0.104-1.031
		C307.368,398.105,307.16,397.849,306.853,397.849L306.853,397.849z M294.649,395.532c-0.413,0.721-0.876,1.492-1.287,2.47
		c-3.45,6.178-8.908,14.984-12.307,14.984c-0.926,0-1.339-0.823-1.339-2.112c0-4.995,6.694-17.918,11.739-17.97h0.052
		C293.621,392.905,294.392,395.119,294.649,395.532L294.649,395.532z M319.16,381.937c2.985-4.635,5.405-7.568,7.979-9.474
		c0.155-0.153,0.258-0.258,0.258-0.411c0-0.465-1.235-0.772-2.782-0.772c-1.749,0-3.964,0.413-5.303,1.391
		c-1.286,1.544-3.448,4.84-6.486,10.092c-0.979,0.05-1.906,0.103-2.678,0.103c-6.644,0-7.414-1.699-7.569-1.699
		c-0.205,0-0.205,0.309-0.205,0.411c0,0,0.875,4.737,5.868,4.737h0.412c0.927-0.05,1.647-0.103,2.317-0.153
		c-4.789,8.804-10.194,20.338-10.194,25.693c0,2.214,0.823,3.553,2.831,3.553c6.078,0,13.338-11.173,16.015-16.013
		c0.103-0.257,0.155-0.875,0.103-1.03c-0.155-0.411-0.413-0.668-0.721-0.668c-0.258,0-0.515,0.155-0.772,0.618
		c-3.552,6.281-9.527,14.056-12.202,14.159c-0.464,0-0.619-0.36-0.619-1.081c0-3.553,5.767-16.168,11.637-26.055
		c0.463-0.05,0.979-0.103,1.39-0.103c3.606,0,5.973,1.649,6.128,1.699c-0.103-2.368-0.565-4.532-3.243-4.839
		C320.55,381.937,319.828,381.937,319.16,381.937L319.16,381.937z M343.874,397.023c-0.309,0-0.979,0.155-1.544,1.133
		c-8.498,14.727-14.469,14.211-15.243,14.262c-3.037,0.105-3.809-5.405-3.191-7.98c0.31,0.103,0.67,0.155,1.082,0.155
		c3.757,0,11.482-3.45,14.262-10.247c1.135-2.883-0.205-4.119-2.624-4.119c-3.864,0-10.453,3.09-14.06,7.62
		c4.893-9.061,10.764-18.691,17.199-25.332c0.771-0.928-0.413-1.442-2.162-1.442c-1.699,0-4.016,0.514-5.613,1.647
		c-5.56,6.281-13.592,19.979-19.669,38.257c-0.053,0.205-0.053,0.465-0.053,0.67c-0.103,2.728,2.06,3.552,3.451,3.552
		c0.155,0,0.308,0,0.516-0.051c0.411-2.419,1.699-5.92,3.19-9.629v0.515c-0.152,4.119,1.084,9.319,5.716,9.319h0.155
		c8.188-0.206,15.705-11.174,18.641-16.321C344.03,398.877,344.955,397.023,343.874,397.023L343.874,397.023z M323.587,400.782
		c2.061-3.604,8.393-9.011,12.771-9.011c3.037,0.466-6.952,9.167-11.792,9.167C324.205,400.937,323.897,400.885,323.587,400.782z
		 M369.156,397.849c-0.207,0-0.412,0.256-0.618,0.668c-3.656,6.281-9.372,13.798-12.409,13.851c-0.566,0-0.722-0.155-0.722-0.979
		c0-3.243,4.583-12.459,8.497-16.528c0-1.751-1.699-2.317-3.193-2.317h-0.308c-1.237,0.053-2.01,1.184-2.37,1.597
		c-0.876-1.441-2.678-4.274-6.331-4.274c-7.828,0-14.574,12.357-14.574,19.722c0,3.398,1.339,5.921,4.48,5.921
		c4.48,0,8.906-6.797,9.73-7.723c-0.308,0.979-0.463,2.007-0.463,2.985c0,2.625,1.081,4.79,2.883,4.79
		c5.407,0,13.441-11.173,16.016-16.013c0.152-0.258,0.152-0.928,0.103-1.031C369.672,398.105,369.464,397.849,369.156,397.849
		L369.156,397.849z M356.952,395.532c-0.413,0.721-0.875,1.492-1.287,2.47c-3.451,6.178-8.908,14.984-12.307,14.984
		c-0.926,0-1.338-0.823-1.338-2.112c0-4.995,6.693-17.918,11.738-17.97h0.053C355.923,392.905,356.695,395.119,356.952,395.532
		L356.952,395.532z M379.351,410.927c-0.053,2.575,1.802,4.479,3.451,4.479c6.486-0.103,16.218-17.454,16.271-17.609
		c0.05-0.206,0.205-0.516,0.205-0.773c0-0.258-0.103-0.515-0.67-0.515c-1.234-0.051-8.959,15.86-14.057,15.808
		c-0.258,0-0.412-0.153-0.412-0.463c0.052-2.575,8.498-14.159,8.548-17.197c-0.05-2.678-2.161-4.377-3.913-4.479h-0.205
		c-3.656,0-12.821,7.826-19.052,16.682c1.133-4.169,5.921-12.407,9.781-14.932c0.414-0.41,0.155-2.522-3.242-2.522
		c-0.154,0-0.361,0-0.566,0c-4.016,0.257-11.688,14.108-12.254,21.626v0.205c-0.053,1.494,1.339,4.119,4.17,4.119h0.257
		c0.565-0.103,0.516-1.647,1.288-3.294c3.45-7.364,15.343-18.435,17.455-18.485c0.205,0,0.309,0.103,0.309,0.309
		c-0.051,1.596-6.642,9.629-7.363,16.581V410.927L379.351,410.927z M407.929,390.176c0.616-1.648-1.339-2.782-3.09-2.782
		c-0.927,0-1.802,0.31-2.163,1.083c-0.72,1.544,1.441,2.781,3.193,2.781C406.796,391.258,407.618,390.948,407.929,390.176
		L407.929,390.176z M410.297,397.591c-0.155,0-0.411,0.153-0.722,0.617c-3.604,6.283-9.576,13.748-12.202,13.853
		c-0.567,0-0.825-0.155-0.825-0.875c0-3.296,4.635-12.564,8.496-16.631c0.053-0.052,0.053-0.155,0.053-0.257
		c0-0.876-1.031-2.009-3.501-2.009c-2.576,0-9.526,12.77-9.526,19.308c0,2.165,0.825,3.656,2.832,3.708h0.05
		c5.355,0,13.027-11.328,15.655-16.168c0.103-0.258,0.205-0.515,0.205-0.773c0-0.411-0.205-0.773-0.515-0.773V397.591z
		 M406.041,414.926c0-0.327-0.327-0.584-0.739-0.584c-0.411,0-0.755,0.257-0.755,0.584c0,0.308,0.344,0.566,0.755,0.566
		C405.714,415.492,406.041,415.234,406.041,414.926z M416.51,407.03c-1.271,0.016-2.866,2.128-3.879,3.689
		c1.133-2.695,4.703-8.494,6.436-9.713c0.035-0.036,0.069-0.086,0.069-0.103c0-0.122-0.377-0.208-0.84-0.208
		c-0.585,0-1.306,0.122-1.684,0.413c-2.334,2.043-5.92,9.868-6.574,13.352c0,0.842,0.344,0.893,1.081,0.893
		c0.086-0.532,0.43-1.339,0.43-1.339c0.241,0.945,1.03,1.358,1.665,1.358c2.748,0,5.013-3.881,5.013-6.353
		c0-1.149-0.479-1.99-1.646-1.99H416.51L416.51,407.03z M416.029,408.249c1.461,0-1.045,5.99-2.899,5.99
		c-0.618,0-0.978-0.462-1.098-1.167C412.547,411.492,414.898,408.249,416.029,408.249z M417.592,420.193
		c4.273-0.152,6.162-9.147,9.249-12.512c0.02-0.016,0.02-0.05,0.02-0.083c0-0.293-0.362-0.637-1.167-0.687h-0.02
		c-0.513,0-2.007,2.833-2.194,3.157c-1.254,2.095-2.834,4.257-3.796,4.291h-0.016c-0.172,0-0.241-0.136-0.241-0.377
		c0-1.15,1.785-4.668,3.176-6.195c0.018-0.052,0.018-0.105,0.018-0.138c0-0.327-0.327-0.737-1.133-0.737
		c-0.874,0-3.535,4.959-3.535,7.328c0,0.738,0.257,1.237,0.876,1.253c0.978,0,2.23-1.289,3.345-2.694
		c-1.63,2.985-3.741,6.04-5.028,6.04c-0.928,0-1.27-0.668-1.39-0.943h-0.018c-0.085,0-0.155,0.188-0.155,0.43
		C415.582,418.977,416.012,420.193,417.592,420.193L417.592,420.193z"/>
</g>
</svg>
