<?xml version="1.0" encoding="utf-8"?>
<!-- Generator: Adobe Illustrator 16.0.0, SVG Export Plug-In . SVG Version: 6.00 Build 0)  -->
<!DOCTYPE svg PUBLIC "-//W3C//DTD SVG 1.1//EN" "http://www.w3.org/Graphics/SVG/1.1/DTD/svg11.dtd">
<svg version="1.1" id="_x31_" xmlns="http://www.w3.org/2000/svg" xmlns:xlink="http://www.w3.org/1999/xlink" x="0px" y="0px"
	 width="300px" height="35.519px" viewBox="0 0 300 35.519" enable-background="new 0 0 300 35.519" xml:space="preserve">
<path fill-rule="evenodd" clip-rule="evenodd" fill="#3D3D3D" d="M35.518,0H27.4l-9.642,15.781L8.118,0H0v35.519h8.118V14.868
	l9.184,15.071h0.913L27.4,14.868v20.651h8.118V0L35.518,0z M52.684,27.705v-6.291h12.686V13.7H52.684V7.814h13.953V0H44.565v35.519
	H66.89v-7.814H52.684L52.684,27.705z M94.713,0H74.417v35.519h8.118V7.814h12.179V0L94.713,0z M119.744,35.519l-1.775-5.581h-13.193
	L103,35.519h-8.88L106.196,0h10.352l12.076,35.519H119.744L119.744,35.519z M107.209,22.327h8.322l-4.16-13.042L107.209,22.327
	L107.209,22.327z M155.937,0H129.55v7.814h9.135v27.705h8.118V7.814h9.134V0L155.937,0z M191.167,35.519l-12.483-18.215L190.658,0
	h-9.234l-10.858,15.426V0h-8.118v35.519h8.118V19.08l11.366,16.439H191.167L191.167,35.519z M220.763,35.519h8.88L217.567,0h-10.353
	l-12.076,35.519h8.88l1.776-5.581h13.192L220.763,35.519L220.763,35.519z M208.23,22.327l4.161-13.042l4.16,13.042H208.23
	L208.23,22.327z M254.926,0v13.599h-11.161V0h-8.118v35.519h8.118V21.414h11.161v14.105h8.121V0H254.926L254.926,0z M291.881,35.519
	H300V0h-6.089l-13.699,19.283V0h-8.12v35.519h6.091l13.698-19.282V35.519z"/>
</svg>
