<?xml version="1.0" encoding="utf-8"?>
<!-- Generator: Adobe Illustrator 16.0.0, SVG Export Plug-In . SVG Version: 6.00 Build 0)  -->
<!DOCTYPE svg PUBLIC "-//W3C//DTD SVG 1.1//EN" "http://www.w3.org/Graphics/SVG/1.1/DTD/svg11.dtd">
<svg version="1.1" id="Слой_1" xmlns="http://www.w3.org/2000/svg" xmlns:xlink="http://www.w3.org/1999/xlink" x="0px" y="0px"
	 width="250px" height="59.421px" viewBox="0 0 250 59.421" enable-background="new 0 0 250 59.421" xml:space="preserve">
<g id="Слой_x0020_1">
	<path fill="#3D3D3D" d="M49.098,48.141C45.855,37.637,61.252,14.26,63.001,7.362C64.033,4.84,63.156,0,61.25,0
		c-0.051,0-0.104,0-0.152,0c-4.225,0.617-22.861,30.791-24.253,30.224C36.33,30.019,46.731,9.99,45.701,5.252
		C45.392,3.811,44.106,0,41.839,0c-8.393,0-23.48,5.508-28.73,16.836c-0.258,0.465-0.361,1.029-0.361,1.596
		c-0.103,2.882,1.854,6.746,2.884,6.746c0.155,0,0.36-0.104,0.413-0.36c1.336-6.18,9.68-18.382,22.912-21.267
		C26.033,17.608,17.434,41.86,1.833,41.86c-0.311,0-0.618-0.05-0.928-0.05c-0.565-0.052-1.029,0.515-0.875,1.028
		c0.67,2.267,3.707,5.92,7.672,5.974c16.58,0.208,28.164-37.435,33.572-42.429c0.565,3.554-8.65,21.01-8.703,23.893
		c0,1.957,0.772,4.582,1.957,4.737c4.943,0.463,17.607-24.406,24.92-30.071c-2.317,8.909-17.401,28.063-17.299,38.104
		c0,4.016,3.139,5.767,5.25,5.767c0.772,0,1.391-0.257,1.698-0.668V48.141L49.098,48.141z M80.815,28.627
		c0.361-0.619,0.156-0.875-0.205-0.875c-0.258,0-0.617,0.154-0.875,0.465C74.589,35.064,69.49,42.274,63.67,42.274
		c-2.214,0-3.089-1.393-3.089-3.451c0-1.131,0.258-2.521,0.824-3.964c0.928,0.463,1.906,0.668,2.883,0.668
		c5.201,0,10.451-6.075,10.451-11.325c0-3.656-1.903-5.201-5.096-5.201c-7.157,0-14.261,11.379-14.261,19.053
		c0,3.809,1.802,6.744,6.281,6.744C68.41,44.795,75.358,37.793,80.815,28.627z M71.292,21.625
		c3.451,0.155-1.699,10.092-6.281,10.092c-0.67,0-1.391-0.205-2.01-0.772C64.289,26.877,69.643,21.573,71.292,21.625z
		 M100.642,23.685c0.359-0.618-0.309-2.007-2.936-2.007c-0.104,0-0.256,0-0.41,0c-0.875,0.051-2.061,0.41-3.039,2.007
		c-0.361-1.494-3.398-4.324-6.023-4.274c-8.549,0.155-13.852,11.637-14.109,19.002c-0.154,3.911,1.597,6.332,4.48,6.332
		c2.469,0,5.303-2.421,8.803-7.209C80.097,51.85,75.206,55.35,72.167,55.35c-2.161,0-3.348-1.852-3.758-2.727h-0.053
		c-0.257,0-0.462,0.514-0.462,1.338c0,2.008,1.339,5.355,6.022,5.457C85.657,59.676,95.595,27.133,100.642,23.685L100.642,23.685z
		 M93.331,25.125c0,0.053-2.834,6.024-3.709,7.724c-3.039,4.532-6.746,9.321-9.166,9.321c-0.875,0-1.441-0.722-1.441-1.854
		c0.053-6.28,6.129-17.403,10.453-17.662C91.372,22.654,92.454,23.53,93.331,25.125L93.331,25.125z M129.991,27.393
		c-0.207,0-0.412,0.256-0.617,0.668c-3.656,6.281-9.373,13.798-12.41,13.852c-0.566,0-0.721-0.156-0.721-0.979
		c0-3.243,4.582-12.459,8.496-16.528c0-1.751-1.699-2.316-3.191-2.316h-0.311c-1.234,0.053-2.008,1.184-2.369,1.597
		c-0.875-1.44-2.678-4.274-6.332-4.274c-7.826,0-14.572,12.357-14.572,19.723c0,3.398,1.34,5.921,4.482,5.921
		c4.479,0,8.906-6.798,9.729-7.724c-0.309,0.979-0.463,2.008-0.463,2.985c0,2.625,1.082,4.79,2.883,4.79
		c5.408,0,13.441-11.173,16.016-16.014c0.152-0.258,0.152-0.928,0.104-1.03C130.507,27.649,130.298,27.393,129.991,27.393
		L129.991,27.393z M117.786,25.077c-0.412,0.721-0.875,1.491-1.287,2.469c-3.449,6.179-8.906,14.984-12.307,14.984
		c-0.926,0-1.338-0.822-1.338-2.111c0-4.996,6.693-17.918,11.738-17.971h0.053C116.759,22.449,117.53,24.663,117.786,25.077
		L117.786,25.077z M142.298,11.481c2.984-4.635,5.406-7.568,7.979-9.475c0.156-0.152,0.26-0.258,0.26-0.41
		c0-0.465-1.236-0.772-2.783-0.772c-1.748,0-3.963,0.413-5.303,1.392c-1.285,1.543-3.447,4.84-6.486,10.092
		c-0.979,0.05-1.906,0.104-2.678,0.104c-6.645,0-7.414-1.699-7.568-1.699c-0.205,0-0.205,0.309-0.205,0.41
		c0,0,0.875,4.737,5.867,4.737h0.412c0.928-0.05,1.646-0.103,2.316-0.153c-4.789,8.805-10.193,20.338-10.193,25.693
		c0,2.214,0.822,3.553,2.832,3.553c6.076,0,13.338-11.173,16.014-16.013c0.104-0.257,0.156-0.875,0.104-1.03
		c-0.154-0.41-0.414-0.668-0.721-0.668c-0.258,0-0.516,0.155-0.771,0.618c-3.553,6.281-9.527,14.056-12.203,14.159
		c-0.463,0-0.619-0.359-0.619-1.081c0-3.554,5.768-16.168,11.637-26.056c0.463-0.049,0.98-0.103,1.391-0.103
		c3.605,0,5.973,1.649,6.129,1.699c-0.104-2.368-0.566-4.532-3.244-4.839C143.688,11.481,142.966,11.481,142.298,11.481
		L142.298,11.481z M167.013,26.567c-0.309,0-0.98,0.155-1.545,1.133c-8.498,14.727-14.469,14.211-15.242,14.262
		c-3.037,0.105-3.809-5.404-3.191-7.979c0.311,0.103,0.67,0.155,1.082,0.155c3.758,0,11.482-3.45,14.262-10.247
		c1.135-2.884-0.205-4.119-2.623-4.119c-3.865,0-10.453,3.09-14.061,7.62c4.893-9.061,10.764-18.691,17.199-25.332
		c0.771-0.928-0.414-1.441-2.162-1.441c-1.699,0-4.016,0.514-5.613,1.646c-5.561,6.281-13.592,19.979-19.67,38.257
		c-0.053,0.205-0.053,0.465-0.053,0.67c-0.102,2.728,2.061,3.552,3.451,3.552c0.156,0,0.309,0,0.516-0.051
		c0.412-2.419,1.699-5.92,3.191-9.629v0.516c-0.152,4.118,1.084,9.318,5.715,9.318h0.156c8.188-0.206,15.705-11.174,18.641-16.32
		C167.169,28.42,168.093,26.567,167.013,26.567L167.013,26.567z M146.726,30.327c2.061-3.604,8.393-9.012,12.771-9.012
		c3.035,0.466-6.953,9.167-11.793,9.167C147.343,30.481,147.036,30.428,146.726,30.327z M192.294,27.393
		c-0.207,0-0.412,0.256-0.617,0.668c-3.656,6.281-9.373,13.798-12.41,13.852c-0.566,0-0.721-0.156-0.721-0.979
		c0-3.243,4.582-12.459,8.496-16.528c0-1.751-1.699-2.316-3.193-2.316h-0.307c-1.238,0.053-2.012,1.184-2.371,1.597
		c-0.875-1.44-2.678-4.274-6.33-4.274c-7.828,0-14.574,12.357-14.574,19.723c0,3.398,1.338,5.921,4.48,5.921
		c4.479,0,8.904-6.798,9.729-7.724c-0.307,0.979-0.463,2.008-0.463,2.985c0,2.625,1.082,4.79,2.883,4.79
		c5.408,0,13.441-11.173,16.018-16.014c0.15-0.258,0.15-0.928,0.102-1.03C192.81,27.649,192.603,27.393,192.294,27.393
		L192.294,27.393z M180.091,25.077c-0.414,0.721-0.875,1.491-1.287,2.469c-3.451,6.179-8.908,14.984-12.307,14.984
		c-0.928,0-1.34-0.822-1.34-2.111c0-4.996,6.693-17.918,11.738-17.971h0.053C179.062,22.449,179.833,24.663,180.091,25.077
		L180.091,25.077z M202.489,40.471c-0.053,2.574,1.803,4.479,3.451,4.479c6.486-0.103,16.217-17.453,16.271-17.609
		c0.049-0.205,0.205-0.516,0.205-0.772c0-0.258-0.104-0.515-0.67-0.515c-1.234-0.051-8.959,15.859-14.059,15.808
		c-0.258,0-0.412-0.153-0.412-0.463c0.053-2.575,8.498-14.159,8.549-17.196c-0.051-2.679-2.16-4.378-3.912-4.48h-0.205
		c-3.656,0-12.822,7.826-19.053,16.683c1.133-4.169,5.92-12.407,9.781-14.933c0.414-0.409,0.154-2.521-3.242-2.521
		c-0.154,0-0.361,0-0.566,0c-4.016,0.258-11.688,14.108-12.254,21.627v0.204c-0.053,1.494,1.34,4.119,4.17,4.119h0.258
		c0.564-0.103,0.516-1.647,1.287-3.294c3.451-7.364,15.344-18.436,17.455-18.484c0.205,0,0.309,0.103,0.309,0.309
		c-0.051,1.596-6.641,9.629-7.363,16.58V40.471L202.489,40.471z M231.067,19.719c0.615-1.647-1.34-2.781-3.09-2.781
		c-0.928,0-1.803,0.311-2.164,1.083c-0.719,1.544,1.441,2.78,3.193,2.78C229.935,20.801,230.757,20.493,231.067,19.719
		L231.067,19.719z M233.435,27.135c-0.154,0-0.41,0.152-0.721,0.617c-3.605,6.283-9.576,13.748-12.203,13.853
		c-0.566,0-0.824-0.155-0.824-0.875c0-3.296,4.635-12.563,8.496-16.631c0.053-0.052,0.053-0.155,0.053-0.257
		c0-0.877-1.031-2.01-3.502-2.01c-2.576,0-9.525,12.771-9.525,19.309c0,2.165,0.824,3.656,2.832,3.708h0.051
		c5.354,0,13.025-11.328,15.654-16.168c0.104-0.259,0.205-0.515,0.205-0.772C233.95,27.497,233.745,27.135,233.435,27.135
		L233.435,27.135L233.435,27.135z M229.179,44.469c0-0.326-0.326-0.584-0.738-0.584s-0.756,0.258-0.756,0.584
		c0,0.309,0.344,0.566,0.756,0.566S229.179,44.778,229.179,44.469z M239.647,36.574c-1.27,0.017-2.865,2.128-3.879,3.688
		c1.133-2.694,4.703-8.493,6.438-9.713c0.033-0.035,0.068-0.086,0.068-0.103c0-0.122-0.377-0.208-0.84-0.208
		c-0.586,0-1.307,0.122-1.684,0.413c-2.334,2.043-5.92,9.868-6.574,13.353c0,0.842,0.344,0.893,1.08,0.893
		c0.086-0.532,0.43-1.339,0.43-1.339c0.242,0.944,1.031,1.358,1.666,1.358c2.748,0,5.012-3.881,5.012-6.354
		c0-1.148-0.479-1.99-1.645-1.99L239.647,36.574L239.647,36.574z M239.167,37.793c1.461,0-1.045,5.989-2.898,5.989
		c-0.619,0-0.979-0.462-1.098-1.167C235.685,41.036,238.036,37.793,239.167,37.793z M240.729,49.737
		c4.273-0.152,6.162-9.146,9.25-12.512c0.02-0.016,0.02-0.051,0.02-0.083c0-0.293-0.361-0.638-1.166-0.687h-0.021
		c-0.512,0-2.006,2.832-2.193,3.156c-1.254,2.096-2.834,4.258-3.797,4.291h-0.016c-0.172,0-0.24-0.136-0.24-0.377
		c0-1.15,1.785-4.668,3.176-6.195c0.018-0.052,0.018-0.104,0.018-0.138c0-0.327-0.326-0.737-1.133-0.737
		c-0.873,0-3.535,4.959-3.535,7.328c0,0.738,0.258,1.237,0.877,1.254c0.977,0,2.229-1.289,3.344-2.695
		c-1.629,2.986-3.74,6.041-5.027,6.041c-0.928,0-1.27-0.668-1.391-0.943h-0.018c-0.084,0-0.154,0.188-0.154,0.43
		C238.72,48.521,239.149,49.737,240.729,49.737L240.729,49.737z"/>
</g>
</svg>
