<?xml version="1.0" encoding="utf-8"?>
<!-- Generator: Adobe Illustrator 16.0.0, SVG Export Plug-In . SVG Version: 6.00 Build 0)  -->
<!DOCTYPE svg PUBLIC "-//W3C//DTD SVG 1.1//EN" "http://www.w3.org/Graphics/SVG/1.1/DTD/svg11.dtd">
<svg version="1.1" id="Слой_1" xmlns:svgjs="http://svgjs.com/svgjs"
	 xmlns="http://www.w3.org/2000/svg" xmlns:xlink="http://www.w3.org/1999/xlink" x="0px" y="0px" width="512px" height="512px"
	 viewBox="0 0 512 512" enable-background="new 0 0 512 512" xml:space="preserve">
<g>
	<g>
		<path fill="#FFFFFF" d="M400.171,244.198L161.096,5.134C157.675,1.716,153.738,0,149.294,0c-4.445,0-8.38,1.716-11.8,5.134
			l-25.647,25.652c-3.425,3.419-5.13,7.348-5.13,11.8s1.705,8.381,5.13,11.8l201.619,201.619L111.847,457.628
			c-3.425,3.419-5.13,7.354-5.13,11.795c0,4.45,1.705,8.386,5.13,11.806l25.649,25.644c3.419,3.423,7.355,5.128,11.8,5.128
			c4.444,0,8.379-1.709,11.8-5.128l239.062-239.066c3.418-3.418,5.129-7.354,5.129-11.8
			C405.287,251.56,403.589,247.625,400.171,244.198z"/>
	</g>
</g>
</svg>
