<?xml version="1.0" encoding="utf-8"?>
<!-- Generator: Adobe Illustrator 16.0.0, SVG Export Plug-In . SVG Version: 6.00 Build 0)  -->
<!DOCTYPE svg PUBLIC "-//W3C//DTD SVG 1.1//EN" "http://www.w3.org/Graphics/SVG/1.1/DTD/svg11.dtd">
<svg version="1.1" id="Слой_1" xmlns:svgjs="http://svgjs.com/svgjs"
	 xmlns="http://www.w3.org/2000/svg" xmlns:xlink="http://www.w3.org/1999/xlink" x="0px" y="0px" width="512px" height="512px"
	 viewBox="0 0 512 512" enable-background="new 0 0 512 512" xml:space="preserve">
<g>
	<g>
		<path fill="#FFFFFF" d="M106.717,256.005c0,4.446,1.711,8.382,5.129,11.8l239.063,239.066c3.421,3.419,7.355,5.128,11.8,5.128
			c4.445,0,8.381-1.705,11.8-5.128l25.649-25.644c3.425-3.42,5.13-7.355,5.13-11.806c0-4.44-1.705-8.376-5.13-11.795
			L198.538,256.005L400.157,54.387c3.425-3.419,5.13-7.348,5.13-11.8s-1.705-8.381-5.13-11.8L374.51,5.134
			C371.09,1.716,367.155,0,362.71,0c-4.444,0-8.381,1.716-11.802,5.134L111.833,244.198
			C108.415,247.625,106.717,251.56,106.717,256.005z"/>
	</g>
</g>
</svg>
