<?xml version="1.0" encoding="utf-8"?>
<!-- Generator: Adobe Illustrator 16.0.0, SVG Export Plug-In . SVG Version: 6.00 Build 0)  -->
<!DOCTYPE svg PUBLIC "-//W3C//DTD SVG 1.1//EN" "http://www.w3.org/Graphics/SVG/1.1/DTD/svg11.dtd">
<svg version="1.1" id="Capa_1" xmlns="http://www.w3.org/2000/svg" xmlns:xlink="http://www.w3.org/1999/xlink" x="0px" y="0px"
	 width="170px" height="176.082px" viewBox="0 0 170 176.082" enable-background="new 0 0 170 176.082" xml:space="preserve">
<path fill="#757575" d="M167.414,160.383l-41.906-43.586c10.774-12.81,16.679-28.926,16.679-45.704
	C142.187,31.892,110.293,0,71.094,0C31.894,0,0,31.893,0,71.093c0,39.2,31.893,71.092,71.093,71.092
	c14.716,0,28.74-4.438,40.729-12.863l42.228,43.916c1.765,1.835,4.139,2.845,6.683,2.845c2.407,0,4.692-0.918,6.427-2.587
	C170.844,169.95,170.961,164.069,167.414,160.383z M71.092,18.546c28.976,0,52.549,23.571,52.549,52.547
	c0,28.975-23.573,52.547-52.549,52.547c-28.974,0-52.546-23.572-52.546-52.547S42.118,18.546,71.092,18.546z"/>
</svg>
