<?xml version="1.0" encoding="utf-8"?>
<!-- Generator: Adobe Illustrator 16.0.0, SVG Export Plug-In . SVG Version: 6.00 Build 0)  -->
<!DOCTYPE svg PUBLIC "-//W3C//DTD SVG 1.1//EN" "http://www.w3.org/Graphics/SVG/1.1/DTD/svg11.dtd">
<svg version="1.1" id="Capa_1" xmlns="http://www.w3.org/2000/svg" xmlns:xlink="http://www.w3.org/1999/xlink" x="0px" y="0px"
	 width="170px" height="176.082px" viewBox="42.561 -3.001 170 176.082" enable-background="new 42.561 -3.001 170 176.082"
	 xml:space="preserve">
<path fill="#FFFFFF" d="M209.975,157.382l-41.907-43.586c10.775-12.81,16.679-28.926,16.679-45.704
	c0-39.201-31.893-71.093-71.093-71.093c-39.2,0-71.093,31.893-71.093,71.093s31.893,71.092,71.093,71.092
	c14.716,0,28.741-4.438,40.73-12.864l42.227,43.917c1.765,1.834,4.139,2.844,6.683,2.844c2.407,0,4.692-0.918,6.427-2.587
	C213.404,166.949,213.521,161.069,209.975,157.382z M113.653,15.545c28.975,0,52.548,23.571,52.548,52.547
	c0,28.975-23.573,52.547-52.548,52.547S61.106,97.067,61.106,68.092C61.106,39.117,84.678,15.545,113.653,15.545z"/>
</svg>
