<?xml version="1.0" encoding="utf-8"?>
<!-- Generator: Adobe Illustrator 16.0.0, SVG Export Plug-In . SVG Version: 6.00 Build 0)  -->
<!DOCTYPE svg PUBLIC "-//W3C//DTD SVG 1.1//EN" "http://www.w3.org/Graphics/SVG/1.1/DTD/svg11.dtd">
<svg version="1.1" id="Capa_1" xmlns="http://www.w3.org/2000/svg" xmlns:xlink="http://www.w3.org/1999/xlink" x="0px" y="0px"
	 width="512px" height="512px" viewBox="0 0 512 512" enable-background="new 0 0 512 512" xml:space="preserve">
<g>
	<path fill="#757575" d="M491.983,403.715c-2.729,0.343-5.474,0.768-8.219,0.783c-26.912,0.05-53.824-0.016-80.721,0.082
		c-3.741,0.017-6.911-1.372-9.689-3.611c-5.621-4.592-11.405-9.117-16.585-14.215c-13.464-13.351-26.585-27.076-39.951-40.557
		c-4.167-4.199-8.611-8.072-12.99-12.043c-2.271-2.141-5.115-2.598-8.056-2.549c-3.938,0.098-7.19,1.879-8.742,5.523
		c-1.422,3.301-2.599,6.879-2.974,10.408c-0.654,6.389-0.687,12.811-0.817,19.199c-0.147,7.157-0.359,14.363-2.369,21.324
		c-0.899,3.072-2.174,6.193-3.759,8.971c-2.777,4.771-7.156,7.369-12.729,7.484c-23.497,0.539-47.01,0.882-70.475-0.654
		c-4.347-0.326-8.35-1.699-12.223-3.611c-21.896-10.752-41.128-25.033-57.844-42.844c-20.343-21.65-38.808-44.869-57.272-68.089
		c-24.854-31.308-46.34-64.805-65.654-99.74C13.856,176.849,7.042,163.94,1.977,150.23c-2.5-6.765-2.5-13.546-0.621-20.359
		c0.539-2.026,1.503-4.003,2.614-5.785c1.585-2.614,4.052-4.068,7.206-4.134c1.111-0.017,2.271-0.049,3.382-0.049
		c24.412,0,48.792,0.098,73.187-0.082c4.82-0.033,8.513,1.585,11.749,4.853c6.013,6.013,10.687,13.023,14.886,20.311
		c4.575,7.941,9.15,15.932,13.187,24.167c8.873,18.121,19.755,35.017,31.275,51.488c5.621,8.023,11.7,15.735,17.533,23.595
		c2.712,3.66,6.471,5.049,10.801,5.163c4.216,0.147,5.931-1.568,6.095-5.784c0.049-1.013,0.033-2.01,0.033-3.023
		c0-27.549,0-55.066-0.033-82.599c0-2.141,0-4.297-0.212-6.421c-0.49-4.918-3.088-7.794-7.958-8.742
		c-2.206-0.425-4.461-0.621-6.7-0.915c-6.863-0.899-9.706-3.807-10.425-10.703c-1.062-10.409,3.921-18.53,13.677-22.174
		c4.199-1.568,8.546-1.912,12.99-1.895c21.749,0.033,43.497,0,65.246,0.016c4.412,0,8.824-0.229,13.203,0.164
		c4.592,0.441,9.232,1.045,13.693,2.353c9.51,2.745,15.016,9.216,16.095,19.183c0.277,2.386,0.343,4.771,0.343,7.157
		c0.033,16.716,0.033,33.432,0.033,50.148c0,17.729-0.017,35.458,0.032,53.187c0,1.732,0.147,3.546,0.621,5.196
		c1.553,5.376,7.402,7.157,12.32,3.775c14.494-9.984,24.004-23.889,31.324-39.363c6.765-14.298,12.598-29.037,18.954-43.53
		c5.082-11.487,10.294-22.909,15.604-34.298c1.291-2.827,3.203-5.392,4.984-7.974c1.617-2.32,3.741-3.333,6.731-3.333
		c31.586,0.098,63.105,0.082,94.675,0.049c7.729,0,13.856,3.137,18.677,9.003c1.699,2.092,2.402,4.543,2.843,7.239
		c1.88,12.435-2.385,23.269-8.333,33.709c-5.638,9.87-12.337,18.971-19.624,27.615c-15.099,17.876-29.902,35.965-42.844,55.491
		c-3.334,5.016-6.177,10.359-9.216,15.54c-2.239,3.79-1.944,7.435,0.865,10.817c5.703,6.862,11.227,13.922,17.223,20.474
		c14.249,15.621,28.856,30.866,43.188,46.405c4.591,5,8.741,10.36,13.006,15.654c1.405,1.748,2.451,3.791,3.824,5.572
		C518.813,381.214,505.48,401.934,491.983,403.715z"/>
</g>
</svg>
